<svg xmlns="http://www.w3.org/2000/svg" width="30" height="30" viewBox="0 0 30 30" fill="none">
  <path d="M26.4844 0H3.51562C1.577 0 0 1.577 0 3.51562V26.4844C0 28.423 1.577 30 3.51562 30H26.4844C28.423 30 30 28.423 30 26.4844V3.51562C30 1.577 28.423 0 26.4844 0ZM27.6562 26.4844C27.6562 27.1305 27.1305 27.6562 26.4844 27.6562H19.5703V19.1016H23.3219L23.7591 15.4688H19.5703V11.543C19.5703 10.5409 20.3261 9.78516 21.3281 9.78516H23.9648V6.38672C23.2709 6.28876 21.9321 6.15234 21.3281 6.15234C19.9615 6.15234 18.5916 6.7289 17.5699 7.73392C16.5173 8.76938 15.9375 10.1257 15.9375 11.5533V15.4688H12.1289V19.1016H15.9375V27.6562H3.51562C2.86949 27.6562 2.34375 27.1305 2.34375 26.4844V3.51562C2.34375 2.86949 2.86949 2.34375 3.51562 2.34375H26.4844C27.1305 2.34375 27.6562 2.86949 27.6562 3.51562V26.4844Z" fill="white"/>
</svg>