<svg xmlns="http://www.w3.org/2000/svg" width="31" height="31" viewBox="0 0 31 31" fill="none">
  <path d="M15.8051 31C15.7025 31 15.5999 31 15.4965 30.9995C13.0666 31.0054 10.8214 30.9437 8.63789 30.8108C6.63605 30.689 4.80876 29.9972 3.35327 28.8104C1.94886 27.6652 0.989802 26.1167 0.502824 24.2086C0.078995 22.5473 0.0565264 20.9166 0.0350038 19.3393C0.0193939 18.2075 0.00331117 16.8665 0 15.5028C0.00331117 14.1334 0.0193939 12.7924 0.0350038 11.6607C0.0565264 10.0836 0.078995 8.45285 0.502824 6.79135C0.989802 4.88317 1.94886 3.33473 3.35327 2.18954C4.80876 1.00272 6.63605 0.310926 8.63812 0.189123C10.8216 0.0564394 13.0673 -0.00552675 15.5024 0.000386055C17.933 -0.00481721 20.1775 0.0564394 22.361 0.189123C24.3629 0.310926 26.1901 1.00272 27.6456 2.18954C29.0503 3.33473 30.0091 4.88317 30.4961 6.79135C30.9199 8.45261 30.9424 10.0836 30.9639 11.6607C30.9795 12.7924 30.9958 14.1334 30.9989 15.4971V15.5028C30.9958 16.8665 30.9795 18.2075 30.9639 19.3393C30.9424 20.9163 30.9201 22.5471 30.4961 24.2086C30.0091 26.1167 29.0503 27.6652 27.6456 28.8104C26.1901 29.9972 24.3629 30.689 22.361 30.8108C20.27 30.938 18.122 31 15.8051 31ZM15.4965 28.5776C17.8869 28.5833 20.0818 28.523 22.2139 28.3934C23.7276 28.3014 25.04 27.8102 26.1152 26.9334C27.109 26.1229 27.7935 25.0047 28.1494 23.6097C28.5023 22.2268 28.5226 20.742 28.5423 19.3061C28.5576 18.182 28.5737 16.8504 28.577 15.5C28.5737 14.1492 28.5576 12.8179 28.5423 11.6938C28.5226 10.2579 28.5023 8.77309 28.1494 7.38996C27.7935 5.99502 27.109 4.87679 26.1152 4.06626C25.04 3.18975 23.7276 2.69851 22.2139 2.60651C20.0818 2.47667 17.8869 2.41683 15.5022 2.42203C13.1122 2.41635 10.9172 2.47667 8.785 2.60651C7.27132 2.69851 5.95892 3.18975 4.88373 4.06626C3.88991 4.87679 3.20545 5.99502 2.8495 7.38996C2.49662 8.77309 2.47628 10.2577 2.45665 11.6938C2.44128 12.8189 2.42519 14.1511 2.42188 15.5028C2.42519 16.8485 2.44128 18.1811 2.45665 19.3061C2.47628 20.742 2.49662 22.2268 2.8495 23.6097C3.20545 25.0047 3.88991 26.1229 4.88373 26.9334C5.95892 27.8099 7.27132 28.3012 8.785 28.3932C10.9172 28.523 13.1127 28.5836 15.4965 28.5776ZM15.4388 23.0683C11.2658 23.0683 7.87041 19.6732 7.87041 15.5C7.87041 11.3267 11.2658 7.93158 15.4388 7.93158C19.612 7.93158 23.0072 11.3267 23.0072 15.5C23.0072 19.6732 19.612 23.0683 15.4388 23.0683ZM15.4388 10.3535C12.6011 10.3535 10.2923 12.6623 10.2923 15.5C10.2923 18.3376 12.6011 20.6465 15.4388 20.6465C18.2767 20.6465 20.5853 18.3376 20.5853 15.5C20.5853 12.6623 18.2767 10.3535 15.4388 10.3535ZM23.8548 5.50969C22.8518 5.50969 22.0384 6.32282 22.0384 7.32611C22.0384 8.32939 22.8518 9.14252 23.8548 9.14252C24.8581 9.14252 25.6712 8.32939 25.6712 7.32611C25.6712 6.32282 24.8581 5.50969 23.8548 5.50969Z" fill="white"/>
</svg>