<svg xmlns="http://www.w3.org/2000/svg" width="39" height="30" viewBox="0 0 39 30" fill="none">
  <path d="M19.4986 30C19.4953 30 19.4917 30 19.4882 30C18.3114 29.9914 7.90796 29.8904 4.96047 29.0419C2.90056 28.4525 1.27447 26.7234 0.719244 24.5304C-0.0519964 21.4483 -0.00290128 15.5144 0.00245455 15.0405C-0.00260373 14.5689 -0.052294 8.58591 0.716863 5.47847C0.717756 5.47562 0.718351 5.47246 0.719244 5.4696C1.26822 3.30159 2.93091 1.51904 4.95541 0.928018C4.96047 0.926434 4.96583 0.925167 4.97088 0.923584C7.88505 0.108322 18.309 0.00855172 19.4882 0H19.5093C20.6891 0.00855172 31.1201 0.109588 34.0406 0.959374C36.0951 1.54722 37.72 3.27403 38.2767 5.46422C39.0768 8.57387 39.0027 14.5699 38.9947 15.076C39.0004 15.5745 39.0471 21.4553 38.2803 24.5529C38.2797 24.556 38.2788 24.5589 38.2782 24.5618C37.7227 26.7548 36.0969 28.4838 34.0346 29.0739C34.0319 29.0748 34.029 29.0755 34.0263 29.0764C31.1124 29.8914 20.6882 29.9911 19.5093 30C19.5057 30 19.5022 30 19.4986 30ZM3.66198 6.3102C2.98476 9.05308 3.04873 14.9598 3.04933 15.0193V15.0621C3.0291 16.7002 3.10021 21.4442 3.66227 23.6911C3.93483 24.767 4.73671 25.6193 5.75373 25.9104C7.92849 26.5366 16.4017 26.7336 19.4986 26.7567C22.6035 26.7336 31.0892 26.5419 33.2479 25.9408C34.2616 25.6488 35.0609 24.7993 35.3352 23.7221C35.8979 21.4423 35.9684 16.7214 35.9478 15.0938C35.9478 15.0766 35.9478 15.0595 35.9481 15.0424C35.9761 13.3847 35.9211 8.58527 35.3379 6.32034C35.3373 6.31812 35.3367 6.31591 35.3364 6.31369C35.0626 5.23301 34.2605 4.38069 33.2434 4.08961C31.0898 3.46281 22.6029 3.26643 19.4986 3.24331C16.3958 3.26643 7.91838 3.45774 5.75313 4.05826C4.75546 4.35282 3.93542 5.23554 3.66198 6.3102ZM36.8072 24.1399H36.808H36.8072ZM15.6153 21.5674V8.43229L26.2794 15L15.6153 21.5674Z" fill="white"/>
</svg>