<svg xmlns="http://www.w3.org/2000/svg" width="42" height="30" viewBox="0 0 42 30" fill="none">
  <path d="M42 3.53296C40.4273 4.14554 38.7043 4.50914 36.9961 4.68658C38.795 3.73997 40.1264 2.25851 40.7695 0.504708C39.078 1.38682 37.297 2.04503 35.3673 2.37934C33.6998 0.820714 31.4593 0 29.2031 0C26.9883 0 24.8721 0.656515 23.1754 2.05911C21.4246 3.5062 20.4293 5.50813 20.4258 7.57062C20.4248 8.14462 20.5312 8.72311 20.6824 9.2957C13.754 8.9904 7.32866 6.10156 2.95312 1.36992C2.16005 2.57001 1.72169 3.89543 1.72266 5.19128C1.72458 7.63202 3.10469 10.0122 5.57812 11.4641C4.20667 11.4283 2.83905 11.1861 1.64062 10.5989V10.7369C1.64191 14.3422 4.59247 17.3113 8.61328 18.0253C7.90288 18.1957 6.98163 18.3162 6.24174 18.3162C6.23918 18.3162 6.23662 18.3162 6.23438 18.3162C5.65599 18.3154 5.07761 18.2653 4.51172 18.1695C5.64061 21.2549 9.11028 23.5162 12.7969 23.5771C9.7457 25.6849 5.00391 26.6774 2.05142 26.6774C1.36569 26.6763 0.680603 26.6769 0 26.6053C3.93141 28.8227 8.50465 29.9941 13.1753 29.9941H13.208V30C28.957 30 37.7344 18.4554 37.7344 8.44654C37.7344 8.1187 37.6777 7.75116 37.6523 7.42642C39.3388 6.3542 40.8429 5.05384 42 3.53296ZM33.0467 15.0184C32.0803 17.2699 30.6915 19.3045 28.9192 21.0659C27.0399 22.9335 24.8138 24.3998 22.3035 25.4235C19.7205 26.4769 16.868 27.043 13.8165 27.1092L13.2022 27.11H13.1753C12.9978 27.11 12.8206 27.1081 12.6437 27.1041C13.4156 26.7295 14.1504 26.3102 14.8243 25.8446C16.5181 24.4617 17.274 22.7099 17.5547 20.7711C17.5547 20.7711 16.1739 20.9186 14.6016 20.9093C13.3833 20.902 12.0503 20.8141 11.1543 20.4055C13.3839 19.5245 14.5557 18.0639 15.0325 16.2228C13.125 16.367 8.69531 15.5018 7.10628 14.3893C8.85938 13.8434 10.5 12.6898 11.1562 11.7525C11.1562 11.7525 8.03906 10.4547 5.83864 7.6723C10.1126 10.3527 15.2024 11.942 20.5184 12.1761L24.8555 12.3293L23.9583 8.94505L23.7907 8.27389C23.7343 8.00182 23.7067 7.77115 23.707 7.57485C23.709 6.30463 24.3348 5.05976 25.4233 4.1599C26.4474 3.31327 27.7192 2.88405 29.2031 2.88405C30.2993 2.88405 31.3818 3.21357 32.2803 3.80672C33.7148 4.90288 34.4531 6.3449 34.4531 8.44654C34.4531 10.6031 33.9667 12.8757 33.0467 15.0184Z" fill="white"/>
</svg>