<svg xmlns="http://www.w3.org/2000/svg" width="30" height="30" viewBox="0 0 30 30" fill="none">
  <path d="M25.5669 4.35654C22.7459 1.54884 18.9932 0.00160218 14.9993 0C11.0143 0 7.25566 1.54587 4.41617 4.35287C1.57164 7.16469 0.00366563 10.9014 0 14.8611V14.8656V14.8684C0.000458204 17.265 0.630718 19.6827 1.82709 21.8896L0.0410093 30L8.25272 28.1339C10.3325 29.1811 12.6531 29.7331 14.9936 29.734H14.9995C18.9839 29.734 22.7425 28.1879 25.5825 25.3807C28.4295 22.5666 29.9982 18.8347 30 14.8725C30.0011 10.9383 28.427 7.2036 25.5669 4.35654ZM14.9993 27.3926H14.994C12.8925 27.3917 10.8102 26.8645 8.97255 25.8678L8.58423 25.6572L3.12381 26.898L4.30987 21.5128L4.08122 21.1189C2.94442 19.1604 2.34371 16.9984 2.34371 14.8659C2.34807 7.96349 8.02476 2.34146 14.9989 2.34146C18.368 2.34283 21.5338 3.64769 23.9128 6.01524C26.3277 8.41942 27.6572 11.5647 27.6561 14.8718C27.6533 21.7758 21.9755 27.3926 14.9993 27.3926Z" fill="white"/>
  <path d="M10.9178 8.31226H10.2603C10.0314 8.31226 9.65981 8.39786 9.34548 8.73958C9.03093 9.08153 8.14453 9.90802 8.14453 11.5889C8.14453 13.2698 9.37412 14.894 9.54549 15.1222C9.71709 15.3501 11.919 18.9097 15.4064 20.2791C18.3048 21.4171 18.8947 21.1908 19.5236 21.1338C20.1527 21.077 21.5536 20.3075 21.8396 19.5098C22.1255 18.7122 22.1255 18.0283 22.0398 17.8855C21.9539 17.7431 21.725 17.6577 21.382 17.487C21.0389 17.316 19.3572 16.4756 19.0427 16.3613C18.7281 16.2476 18.4995 16.1906 18.2706 16.5328C18.0417 16.8743 17.368 17.6644 17.1677 17.8923C16.9677 18.1205 16.7675 18.1491 16.4243 17.9782C16.0811 17.8067 14.9874 17.4396 13.6767 16.276C12.6565 15.3703 11.9485 14.2153 11.7483 13.8734C11.5483 13.5317 11.727 13.3467 11.8991 13.1762C12.0532 13.0233 12.2615 12.8141 12.4331 12.6148C12.6045 12.4152 12.6533 12.2728 12.7678 12.0449C12.8821 11.8169 12.8249 11.6173 12.7392 11.4466C12.6533 11.2756 11.9948 9.58621 11.6897 8.91055H11.6899C11.4328 8.34155 11.1623 8.32233 10.9178 8.31226Z" fill="white"/>
</svg>